<?xml version="1.0"?>
<svg version="1.1" xmlns="http://www.w3.org/2000/svg" width="400px" height="200px" style="">
    <path fill="#000000" d="M13.046,126.738l13.224-35.728l5.8-0.29l12.876,36.018l4.814,1.102l0,3.48l-16.82,0l0-3.48l5.394-1.102l-2.204-6.438l-15.08,0l-2.262,6.438l5.452,1.102l0,3.48l-15.95,0l0-3.48z M34.564,115.66l-5.858-17.458l-6.09,17.458l11.948,0z M65.9188,100.58l0.522,4.234c1.45-1.624,4.814-4.814,8.758-4.814c2.9,0,5.22,0.87,5.22,0.87l-0.29,8.41l-3.77,0l-0.87-4.35c-4.35,0-7.134,2.842-8.41,4.524l0,17.226l5.8,1.45l0,3.19l-16.53,0l0-3.19l4.93-1.45l0-21.46l-4.93-1.16l0-3.19z M108.1776,110.15l-0.87-4.93s-2.32-0.58-5.22-0.58c-5.51,0-8.7,3.48-8.7,10.73c0,7.83,3.48,11.89,8.99,11.89s8.99-3.48,8.99-3.48l2.03,3.48s-5.22,4.64-11.6,4.64c-9.57,0-14.5-6.09-14.5-15.95c0-9.28,5.8-15.95,15.08-15.95c5.22,0,9.86,2.32,9.86,2.32l-0.29,7.83l-3.77,0z M130.7164,86.66l0,17.516c1.798-1.508,5.858-4.176,10.15-4.176c6.38,0,9.28,4.06,9.28,10.44l0,16.24l4.35,1.45l0,3.19l-13.92,0l0-3.19l3.77-1.392l0-15.718c0-4.06-1.276-6.09-5.046-6.09c-4.93,0-8.584,4.64-8.584,4.64l0,17.11l3.77,1.45l0,3.19l-14.5,0l0-3.19l4.93-1.45l0-35.38l-4.93-1.16l0-3.19z M166.3052,91.01c0-2.61,1.74-4.06,3.77-4.06c2.32,0,3.77,1.16,3.77,4.06c0,2.61-2.03,4.06-3.77,4.06c-2.32,0-3.77-1.45-3.77-4.06z M177.6152,128.13l0,3.19l-15.08,0l0-3.19l4.93-1.45l0-21.46l-4.93-1.16l0-3.19l10.73-0.29l0,26.1z M204.794,100.87l0,4.35l-8.41,0l0,18.618c0,2.668,1.276,3.538,2.9,3.538c1.392,0,3.016-0.638,4.524-1.45l1.566,3.074c-2.61,1.914-5.22,2.9-8.12,2.9c-3.48,0-6.67-1.914-6.67-8.41l0-18.27l-5.8,0l0-3.77l5.8-0.58l0-7.308l5.8-1.16l0,8.468l8.41,0z M238.9328,116.82l-20.01,0c0,6.38,3.422,10.44,8.41,10.44c5.8,0,9.744-3.19,9.744-3.19l2.03,3.016s-5.394,4.814-12.354,4.814c-9.28,0-13.92-6.09-13.92-15.66c0-9.28,5.8-16.24,14.21-16.24s12.18,4.93,12.18,13.63c0,1.45-0.29,3.074-0.29,3.19z M219.1548,112.47l13.92,0c0-4.35-1.682-7.946-6.322-7.946s-7.25,3.596-7.598,7.946z M269.0116,110.15l-0.87-4.93s-2.32-0.58-5.22-0.58c-5.51,0-8.7,3.48-8.7,10.73c0,7.83,3.48,11.89,8.99,11.89s8.99-3.48,8.99-3.48l2.03,3.48s-5.22,4.64-11.6,4.64c-9.57,0-14.5-6.09-14.5-15.95c0-9.28,5.8-15.95,15.08-15.95c5.22,0,9.86,2.32,9.86,2.32l-0.29,7.83l-3.77,0z M300.5404,100.87l0,4.35l-8.41,0l0,18.618c0,2.668,1.276,3.538,2.9,3.538c1.392,0,3.016-0.638,4.524-1.45l1.566,3.074c-2.61,1.914-5.22,2.9-8.12,2.9c-3.48,0-6.67-1.914-6.67-8.41l0-18.27l-5.8,0l0-3.77l5.8-0.58l0-7.308l5.8-1.16l0,8.468l8.41,0z M328.5892,90.14c11.31,0,17.98,7.83,17.98,20.3c0,12.76-7.83,21.46-19.14,21.46s-17.69-7.25-17.69-20.59c0-12.76,7.25-21.17,18.85-21.17z M328.2992,95.07c-7.54,0-11.89,4.93-11.89,15.95c0,10.44,3.77,15.95,11.31,15.95s12.18-5.22,12.18-16.24c0-10.44-4.06-15.66-11.6-15.66z M387.378,94.78l-23.2,31.9l17.98,0l1.16-5.8l3.77,0l0,10.44l-30.74,0l0-4.06l23.2-31.9l-16.24,0l-1.45,5.8l-3.77,0l0-10.44l29.29,0l0,4.06z"/>
    <path fill="#" d=""/>
</svg>
